<?xml version="1.0" encoding="utf-8"?>
<!-- Generator: Adobe Illustrator 25.2.0, SVG Export Plug-In . SVG Version: 6.00 Build 0)  -->
<svg version="1.1" id="Layer_23" xmlns="http://www.w3.org/2000/svg" xmlns:xlink="http://www.w3.org/1999/xlink" x="0px" y="0px"
	 viewBox="0 0 254.5 286.37" style="enable-background:new 0 0 254.5 286.37;" xml:space="preserve">
<style type="text/css">
	.st0{fill:#FFFFFF;}
	.st1{fill:#58A7F7;}
	.st2{fill:#CEE4FD;}
	.st3{fill:#8C9BAB;}
	.st4{fill:none;stroke:#8E5F5C;stroke-miterlimit:10;}
	.st5{fill:#DEF0FF;}
	.st6{fill:#57A7F7;}
	.st7{fill:#06092C;}
	.st8{fill:#F4B79B;}
	.st9{fill:#003595;}
	.st10{fill:#850901;}
	.st11{fill:#99210F;}
	.st12{fill:#110F0B;}
	.st13{fill:#B5261F;}
	.st14{fill:#F5B89C;}
	.st15{fill:#ECEDEF;}
	.st16{fill:#FFAA01;}
	.st17{fill:#EF9A03;}
	.st18{fill:#2D1313;}
	.st19{fill:#FE2C67;}
	.st20{fill:#848EE9;}
	.st21{clip-path:url(#SVGID_2_);}
	.st22{fill:#12182C;}
	.st23{fill:#EFDE07;}
	.st24{fill:#FF9971;}
	.st25{fill:#454384;}
	.st26{fill:#323266;}
	.st27{fill:#EA825E;}
	.st28{fill:#FB986F;}
	.st29{fill:#2E3049;}
	.st30{fill:#BF3A2C;}
	.st31{fill:#151A2D;}
	.st32{fill:#D7E7FF;}
	.st33{fill:#3485FF;}
	.st34{fill:#1569BC;}
	.st35{fill:#333F60;}
</style>
<g>
	<g>
		<g>
			<path class="st0" d="M158.87,108.25h-23.89c-1.72,0-3.11-1.39-3.11-3.11V73.56c0-1.72,1.39-3.11,3.11-3.11h23.89
				c1.72,0,3.11,1.39,3.11,3.11v31.57C161.98,106.85,160.59,108.25,158.87,108.25z"/>
		</g>
		<g>
			<path class="st1" d="M160.47,108.49h-27.09c-0.97,0-1.76-0.79-1.76-1.76V71.96c0-0.97,0.79-1.76,1.76-1.76h27.09
				c0.97,0,1.76,0.79,1.76,1.76v34.77C162.23,107.7,161.44,108.49,160.47,108.49z M133.38,70.69c-0.7,0-1.27,0.57-1.27,1.27v34.77
				c0,0.7,0.57,1.27,1.27,1.27h27.09c0.7,0,1.27-0.57,1.27-1.27V71.96c0-0.7-0.57-1.27-1.27-1.27H133.38z"/>
		</g>
	</g>
	<g>
		<path class="st2" d="M158.73,75.3h-23.35c-0.4,0-0.73-0.33-0.73-0.73c0-0.4,0.33-0.73,0.73-0.73h23.35c0.4,0,0.73,0.33,0.73,0.73
			C159.46,74.98,159.13,75.3,158.73,75.3z"/>
	</g>
	<g>
		<path class="st2" d="M144.14,78.13h-8.76c-0.4,0-0.73-0.33-0.73-0.73s0.33-0.73,0.73-0.73h8.76c0.4,0,0.73,0.33,0.73,0.73
			S144.54,78.13,144.14,78.13z"/>
	</g>
	<g>
		<path class="st2" d="M144.54,98.53h-9.16c-0.4,0-0.73-0.33-0.73-0.73c0-0.4,0.33-0.73,0.73-0.73h9.16c0.4,0,0.73,0.33,0.73,0.73
			C145.27,98.2,144.94,98.53,144.54,98.53z"/>
	</g>
	<g>
		<path class="st2" d="M141.34,101.36h-5.96c-0.4,0-0.73-0.33-0.73-0.73c0-0.4,0.33-0.73,0.73-0.73h5.96c0.4,0,0.73,0.33,0.73,0.73
			C142.07,101.03,141.74,101.36,141.34,101.36z"/>
	</g>
	<g>
		<path class="st2" d="M144.54,104.19h-9.16c-0.4,0-0.73-0.33-0.73-0.73c0-0.4,0.33-0.73,0.73-0.73h9.16c0.4,0,0.73,0.33,0.73,0.73
			C145.27,103.86,144.94,104.19,144.54,104.19z"/>
	</g>
	<g>
		<path class="st2" d="M157.14,91.79h-20.68c-1.13,0-2.05-0.92-2.05-2.05v-7.59c0-1.13,0.92-2.05,2.05-2.05h20.68
			c1.13,0,2.05,0.92,2.05,2.05v7.59C159.19,90.87,158.27,91.79,157.14,91.79z"/>
	</g>
	<g>
		<path class="st2" d="M157.77,103.77h-6.75c-1.33,0-2.02-0.69-2.02-1.53v-3.23c0-0.85,0.69-1.53,1.53-1.53h6.75
			c0.85,0,1.53,0.69,1.53,1.53v3.23C158.82,103.09,158.13,103.77,157.77,103.77z"/>
	</g>
	<g>
		<circle class="st3" cx="146.61" cy="86.03" r="3.65"/>
	</g>
	<g>
		<path class="st0" d="M147.29,85.53l-0.21-0.12c-0.51-0.29-1.14,0.07-1.14,0.66v0.24c0,0.59,0.63,0.95,1.14,0.66l0.21-0.12
			C147.79,86.55,147.79,85.82,147.29,85.53z"/>
	</g>
	<g>
		<rect x="189.18" y="42.31" class="st1" width="0.49" height="10.49"/>
	</g>
	<g>
		<g>
			<path class="st1" d="M18.38,94.87c-4.54,0-8.24-3.7-8.24-8.24c0-4.54,3.7-8.24,8.24-8.24s8.24,3.7,8.24,8.24
				C26.62,91.17,22.92,94.87,18.38,94.87z M18.38,78.87c-4.28,0-7.76,3.48-7.76,7.76s3.48,7.76,7.76,7.76s7.76-3.48,7.76-7.76
				S22.65,78.87,18.38,78.87z"/>
		</g>
	</g>
	<g>
		<g>
			<rect x="26.38" y="86.38" class="st1" width="4.53" height="0.49"/>
		</g>
	</g>
	<g>
		<g>
			<rect x="55.11" y="86.38" class="st1" width="6.9" height="0.49"/>
		</g>
	</g>
	<g>
		<g>
			<path class="st4" d="M60.06,84.78"/>
		</g>
	</g>
	<g>
		<g>
			<polygon class="st1" points="60.45,88.75 60.11,88.41 61.91,86.63 60.11,84.96 60.44,84.6 62.62,86.62 			"/>
		</g>
	</g>
	<g>
		<g>
			<rect x="81.72" y="86.38" class="st1" width="21.47" height="0.49"/>
		</g>
	</g>
	<g>
		<g>
			<path class="st1" d="M101.48,88.82c-0.06,0-0.13-0.02-0.17-0.07c-0.09-0.1-0.09-0.25,0-0.34l1.81-1.78l-1.8-1.67
				c-0.1-0.09-0.1-0.25-0.01-0.34c0.09-0.1,0.25-0.1,0.34-0.01l2.17,2.02l-2.17,2.14C101.61,88.8,101.54,88.82,101.48,88.82z"/>
		</g>
	</g>
	<g>
		<g>
			<path class="st1" d="M129.18,62.23c-0.06,0-0.13-0.02-0.17-0.07c-0.09-0.1-0.09-0.25,0-0.34l1.81-1.78l-1.8-1.67
				c-0.1-0.09-0.1-0.25-0.01-0.34c0.09-0.1,0.25-0.1,0.34-0.01l2.17,2.02l-2.17,2.14C129.3,62.2,129.24,62.23,129.18,62.23z"/>
		</g>
	</g>
	<g>
		<g>
			<path class="st1" d="M85.54,93.59H69.75c-3.9,0-7.07-3.17-7.07-7.07c0-3.9,3.17-7.07,7.07-7.07h15.79c3.9,0,7.07,3.17,7.07,7.07
				C92.61,90.42,89.44,93.59,85.54,93.59z M69.75,79.93c-3.63,0-6.59,2.95-6.59,6.59c0,3.63,2.95,6.59,6.59,6.59h15.79
				c3.63,0,6.59-2.95,6.59-6.59c0-3.63-2.95-6.59-6.59-6.59H69.75z"/>
		</g>
	</g>
	<g>
		<g>
			<path class="st1" d="M80.43,85.77c0.5,0,0.91,0.41,0.91,0.91c0,0.5-0.41,0.91-0.91,0.91s-0.91-0.41-0.91-0.91
				C79.51,86.18,79.92,85.77,80.43,85.77 M80.43,85.28c-0.77,0-1.4,0.63-1.4,1.4c0,0.77,0.63,1.4,1.4,1.4s1.4-0.63,1.4-1.4
				C81.83,85.91,81.2,85.28,80.43,85.28L80.43,85.28z"/>
		</g>
	</g>
	<g>
		<g>
			<circle class="st1" cx="80.43" cy="86.68" r="0.55"/>
		</g>
	</g>
	<g>
		<g>
			<path class="st1" d="M113.61,95.5c-0.32,0-0.63-0.12-0.87-0.36l-7.75-7.75c-0.23-0.23-0.36-0.54-0.36-0.87
				c0-0.33,0.13-0.64,0.36-0.87l7.75-7.75c0.48-0.48,1.26-0.48,1.75,0l7.75,7.75c0.23,0.23,0.36,0.54,0.36,0.87
				c0,0.33-0.13,0.64-0.36,0.87l-7.75,7.75C114.24,95.38,113.93,95.5,113.61,95.5z M113.08,94.79c0.29,0.29,0.77,0.29,1.06,0
				l7.75-7.75c0.14-0.14,0.22-0.33,0.22-0.53c0-0.2-0.08-0.39-0.22-0.53l-7.75-7.75c-0.29-0.29-0.77-0.29-1.06,0l-7.75,7.75
				c-0.14,0.14-0.22,0.33-0.22,0.53c0,0.2,0.08,0.39,0.22,0.53L113.08,94.79z"/>
		</g>
	</g>
	<g>
		<g>
			<rect x="113.37" y="95.89" class="st1" width="0.49" height="25.4"/>
		</g>
	</g>
	<g>
		<g>
			<path class="st1" d="M113.85,77.4h-0.49V61.8c0-1.08,0.88-1.97,1.97-1.97h15.4v0.49h-15.4c-0.82,0-1.48,0.66-1.48,1.48V77.4z"/>
		</g>
	</g>
	<g>
		<g>
			<path class="st1" d="M160.59,66.56h-27.33c-0.9,0-1.64-0.74-1.64-1.64v-9.87c0-0.9,0.74-1.64,1.64-1.64h27.33
				c0.9,0,1.64,0.74,1.64,1.64v9.87C162.23,65.83,161.49,66.56,160.59,66.56z M133.26,53.9c-0.64,0-1.15,0.52-1.15,1.15v9.87
				c0,0.64,0.52,1.15,1.15,1.15h27.33c0.64,0,1.15-0.52,1.15-1.15v-9.87c0-0.64-0.52-1.15-1.15-1.15H133.26z"/>
		</g>
	</g>
	<g>
		<g>
			<rect x="162.73" y="59.55" class="st1" width="10.9" height="0.49"/>
		</g>
	</g>
	<g>
		<g>
			<path class="st1" d="M171.9,61.94c-0.06,0-0.13-0.02-0.17-0.07c-0.09-0.1-0.09-0.25,0-0.34l1.81-1.78l-1.8-1.67
				c-0.1-0.09-0.1-0.25-0.01-0.34c0.09-0.1,0.25-0.1,0.34-0.01l2.17,2.02l-2.17,2.14C172.02,61.92,171.96,61.94,171.9,61.94z"/>
		</g>
	</g>
	<g>
		<g>
			<path class="st1" d="M202.92,66.56h-27.33c-0.9,0-1.64-0.74-1.64-1.64v-9.87c0-0.9,0.74-1.64,1.64-1.64h27.33
				c0.9,0,1.64,0.74,1.64,1.64v9.87C204.55,65.83,203.82,66.56,202.92,66.56z M175.59,53.9c-0.64,0-1.15,0.52-1.15,1.15v9.87
				c0,0.64,0.52,1.15,1.15,1.15h27.33c0.64,0,1.15-0.52,1.15-1.15v-9.87c0-0.64-0.52-1.15-1.15-1.15H175.59z"/>
		</g>
	</g>
	<g>
		<g>
			<path class="st1" d="M227.67,67.99c-8.17,0-14.82-3.71-14.82-8.28c0-4.56,6.65-8.28,14.82-8.28c8.17,0,14.82,3.71,14.82,8.28
				C242.49,64.28,235.84,67.99,227.67,67.99z M227.67,51.92c-7.9,0-14.33,3.5-14.33,7.79c0,4.3,6.43,7.79,14.33,7.79
				c7.9,0,14.33-3.5,14.33-7.79C242,55.42,235.57,51.92,227.67,51.92z"/>
		</g>
	</g>
	<g>
		<g>
			<path class="st5" d="M194.16,40.42h-10.83c-3.48,0-6.29-2.82-6.29-6.29v0c0-3.48,2.82-6.29,6.29-6.29h10.83
				c3.48,0,6.29,2.82,6.29,6.29v0C200.45,37.61,197.63,40.42,194.16,40.42z"/>
		</g>
	</g>
	<g>
		<g>
			<rect x="162.73" y="34.26" class="st1" width="10.9" height="0.49"/>
		</g>
	</g>
	<g>
		<g>
			<polygon class="st1" points="172.07,36.57 171.72,36.23 173.53,34.45 171.73,32.77 172.06,32.42 174.23,34.44 			"/>
		</g>
	</g>
	<g>
		<g>
			<path d="M140.42,33.22h1.21v0.21h-0.97v0.53h0.86v0.21h-0.86v0.79h-0.24V33.22z"/>
		</g>
		<g>
			<path d="M142.37,33.22h0.24v1.54h0.88v0.21h-1.11V33.22z"/>
		</g>
		<g>
			<path d="M145.65,33.47c0.12,0.15,0.17,0.35,0.17,0.59c0,0.26-0.07,0.48-0.2,0.65c-0.15,0.2-0.38,0.3-0.66,0.3
				c-0.27,0-0.48-0.09-0.63-0.27c-0.14-0.17-0.21-0.39-0.21-0.65c0-0.24,0.06-0.44,0.18-0.61c0.15-0.22,0.37-0.32,0.67-0.32
				C145.27,33.17,145.5,33.27,145.65,33.47z M145.44,34.58c0.09-0.15,0.14-0.32,0.14-0.52c0-0.21-0.05-0.37-0.16-0.5
				s-0.25-0.19-0.44-0.19c-0.18,0-0.33,0.06-0.44,0.19c-0.11,0.12-0.17,0.31-0.17,0.55c0,0.19,0.05,0.36,0.15,0.49
				c0.1,0.13,0.26,0.2,0.48,0.2C145.2,34.8,145.35,34.73,145.44,34.58z"/>
		</g>
		<g>
			<path d="M146.71,33.22l0.33,1.42l0.39-1.42h0.26l0.4,1.42l0.33-1.42h0.26l-0.46,1.74h-0.25l-0.4-1.45l-0.41,1.45h-0.25
				l-0.46-1.74H146.71z"/>
		</g>
		<g>
			<path d="M150.61,33.34c0.12,0.12,0.19,0.25,0.2,0.4h-0.23c-0.03-0.11-0.08-0.2-0.15-0.27c-0.08-0.07-0.18-0.1-0.32-0.1
				c-0.17,0-0.31,0.06-0.41,0.18c-0.1,0.12-0.16,0.31-0.16,0.56c0,0.2,0.05,0.37,0.14,0.5c0.09,0.13,0.23,0.19,0.42,0.19
				c0.17,0,0.3-0.07,0.39-0.2c0.05-0.07,0.08-0.16,0.11-0.28h0.23c-0.02,0.18-0.09,0.34-0.2,0.46c-0.14,0.15-0.32,0.22-0.55,0.22
				c-0.2,0-0.37-0.06-0.51-0.18c-0.18-0.16-0.27-0.41-0.27-0.75c0-0.26,0.07-0.47,0.2-0.63c0.15-0.18,0.35-0.27,0.6-0.27
				C150.32,33.17,150.49,33.23,150.61,33.34z"/>
		</g>
		<g>
			<path d="M151.62,33.22h0.24v0.72h0.9v-0.72H153v1.74h-0.24v-0.82h-0.9v0.82h-0.24V33.22z"/>
		</g>
		<g>
			<path d="M154.37,33.22h0.27l0.63,1.74h-0.26l-0.18-0.52h-0.69l-0.19,0.52h-0.24L154.37,33.22z M154.75,34.25l-0.26-0.77
				l-0.28,0.77H154.75z"/>
		</g>
		<g>
			<path d="M156,33.22h0.79c0.13,0,0.24,0.02,0.32,0.06c0.16,0.07,0.24,0.21,0.24,0.41c0,0.1-0.02,0.19-0.07,0.26
				s-0.1,0.12-0.18,0.16c0.07,0.03,0.12,0.06,0.15,0.11c0.03,0.05,0.05,0.12,0.06,0.22l0.01,0.23c0,0.07,0.01,0.12,0.02,0.15
				c0.01,0.06,0.04,0.09,0.08,0.11v0.04h-0.29c-0.01-0.01-0.01-0.03-0.02-0.06c0-0.02-0.01-0.07-0.01-0.14l-0.01-0.29
				c-0.01-0.11-0.05-0.19-0.12-0.23c-0.04-0.02-0.11-0.03-0.21-0.03h-0.52v0.75H156V33.22z M156.76,34.02
				c0.11,0,0.19-0.02,0.26-0.07c0.06-0.04,0.09-0.12,0.09-0.24c0-0.12-0.04-0.21-0.13-0.25c-0.05-0.02-0.11-0.04-0.19-0.04h-0.56
				v0.6H156.76z"/>
		</g>
		<g>
			<path d="M159.44,33.22v0.21h-0.59v1.54h-0.24v-1.54h-0.59v-0.21H159.44z"/>
		</g>
	</g>
	<g>
		<g>
			<path d="M33.88,85.48h1.21v0.21h-0.97v0.53h0.86v0.21h-0.86v0.79h-0.24V85.48z"/>
		</g>
		<g>
			<path d="M35.83,85.48h0.24v1.54h0.88v0.21h-1.11V85.48z"/>
		</g>
		<g>
			<path d="M39.11,85.73c0.12,0.15,0.17,0.35,0.17,0.59c0,0.26-0.07,0.48-0.2,0.65c-0.15,0.2-0.38,0.3-0.66,0.3
				c-0.27,0-0.48-0.09-0.63-0.27c-0.14-0.17-0.21-0.39-0.21-0.65c0-0.24,0.06-0.44,0.18-0.61c0.15-0.22,0.37-0.32,0.67-0.32
				C38.73,85.43,38.96,85.53,39.11,85.73z M38.9,86.84c0.09-0.15,0.14-0.32,0.14-0.52c0-0.21-0.05-0.37-0.16-0.5
				c-0.11-0.13-0.25-0.19-0.44-0.19c-0.18,0-0.33,0.06-0.44,0.19c-0.11,0.12-0.17,0.31-0.17,0.55c0,0.19,0.05,0.36,0.15,0.49
				c0.1,0.13,0.26,0.2,0.48,0.2C38.66,87.07,38.81,86.99,38.9,86.84z"/>
		</g>
		<g>
			<path d="M40.17,85.48l0.33,1.42l0.39-1.42h0.26l0.4,1.42l0.33-1.42h0.26l-0.46,1.74h-0.25l-0.4-1.45l-0.41,1.45h-0.25l-0.46-1.74
				H40.17z"/>
		</g>
		<g>
			<path d="M44.07,85.61c0.12,0.12,0.19,0.25,0.2,0.4h-0.23c-0.03-0.11-0.08-0.2-0.15-0.27c-0.08-0.07-0.18-0.1-0.32-0.1
				c-0.17,0-0.31,0.06-0.41,0.18c-0.1,0.12-0.16,0.31-0.16,0.56c0,0.2,0.05,0.37,0.14,0.5c0.09,0.13,0.23,0.19,0.42,0.19
				c0.17,0,0.3-0.07,0.39-0.2c0.05-0.07,0.08-0.16,0.11-0.28h0.23c-0.02,0.18-0.09,0.34-0.2,0.46c-0.14,0.15-0.32,0.22-0.55,0.22
				c-0.2,0-0.37-0.06-0.51-0.18c-0.18-0.16-0.27-0.41-0.27-0.75c0-0.26,0.07-0.47,0.2-0.63c0.15-0.18,0.35-0.27,0.6-0.27
				C43.78,85.43,43.95,85.49,44.07,85.61z"/>
		</g>
		<g>
			<path d="M45.08,85.48h0.24v0.72h0.9v-0.72h0.24v1.74h-0.24v-0.82h-0.9v0.82h-0.24V85.48z"/>
		</g>
		<g>
			<path d="M47.83,85.48h0.27l0.63,1.74h-0.26l-0.18-0.52H47.6l-0.19,0.52h-0.24L47.83,85.48z M48.22,86.51l-0.26-0.77l-0.28,0.77
				H48.22z"/>
		</g>
		<g>
			<path d="M49.46,85.48h0.79c0.13,0,0.24,0.02,0.32,0.06c0.16,0.07,0.24,0.21,0.24,0.41c0,0.1-0.02,0.19-0.07,0.26
				c-0.04,0.07-0.1,0.12-0.18,0.16c0.07,0.03,0.12,0.06,0.15,0.11c0.03,0.05,0.05,0.12,0.06,0.22l0.01,0.23
				c0,0.07,0.01,0.12,0.02,0.15c0.01,0.06,0.04,0.09,0.08,0.11v0.04h-0.29c-0.01-0.01-0.01-0.03-0.02-0.06
				c0-0.02-0.01-0.07-0.01-0.14l-0.01-0.29c-0.01-0.11-0.05-0.19-0.12-0.23c-0.04-0.02-0.11-0.03-0.21-0.03H49.7v0.75h-0.24V85.48z
				 M50.23,86.28c0.11,0,0.19-0.02,0.26-0.07s0.09-0.12,0.09-0.24c0-0.12-0.04-0.21-0.13-0.25c-0.05-0.02-0.11-0.04-0.19-0.04H49.7
				v0.6H50.23z"/>
		</g>
		<g>
			<path d="M52.9,85.48v0.21h-0.59v1.54h-0.24v-1.54h-0.59v-0.21H52.9z"/>
		</g>
	</g>
	<g>
		<g>
			<rect x="109.73" y="34.26" class="st1" width="28.38" height="0.49"/>
		</g>
	</g>
	<g>
		<path class="st2" d="M199.66,57.65H178.1c-0.45,0-0.81-0.36-0.81-0.81l0,0c0-0.45,0.36-0.81,0.81-0.81h21.56
			c0.45,0,0.81,0.36,0.81,0.81l0,0C200.48,57.28,200.11,57.65,199.66,57.65z"/>
	</g>
	<g>
		<path class="st2" d="M233.85,59.53h-12.36c-0.45,0-0.81-0.36-0.81-0.81l0,0c0-0.45,0.36-0.81,0.81-0.81h12.36
			c0.45,0,0.81,0.36,0.81,0.81l0,0C234.67,59.16,234.3,59.53,233.85,59.53z"/>
	</g>
	<g>
		<path class="st2" d="M229.36,61.85h-7.87c-0.45,0-0.81-0.36-0.81-0.81l0,0c0-0.45,0.36-0.81,0.81-0.81h7.87
			c0.45,0,0.81,0.36,0.81,0.81l0,0C230.17,61.49,229.81,61.85,229.36,61.85z"/>
	</g>
	<g>
		<path class="st2" d="M199.66,60.01H178.1c-0.45,0-0.81-0.36-0.81-0.81l0,0c0-0.45,0.36-0.81,0.81-0.81h21.56
			c0.45,0,0.81,0.36,0.81,0.81l0,0C200.48,59.65,200.11,60.01,199.66,60.01z"/>
	</g>
	<g>
		<path class="st2" d="M187.84,62.48h-9.65c-0.45,0-0.81-0.36-0.81-0.81l0,0c0-0.45,0.36-0.81,0.81-0.81h9.65
			c0.45,0,0.81,0.36,0.81,0.81l0,0C188.65,62.12,188.29,62.48,187.84,62.48z"/>
	</g>
	<g>
		<rect x="43" y="23.57" class="st0" width="66.75" height="20.38"/>
		<path class="st1" d="M109.99,44.2H42.75V23.33h67.24V44.2z M43.24,43.71h66.27V23.82H43.24V43.71z"/>
	</g>
	<g>
		<path class="st0" d="M43.22,24.7L43.22,24.7c-0.54,0-0.98-0.44-0.98-0.98v0c0-0.54,0.44-0.98,0.98-0.98l0,0
			c0.54,0,0.98,0.44,0.98,0.98v0C44.2,24.26,43.76,24.7,43.22,24.7z"/>
		<path class="st1" d="M43.72,24.95h-0.99c-0.4,0-0.73-0.33-0.73-0.73v-0.99c0-0.4,0.33-0.73,0.73-0.73h0.99
			c0.4,0,0.73,0.33,0.73,0.73v0.99C44.45,24.62,44.12,24.95,43.72,24.95z M42.73,22.99c-0.13,0-0.24,0.11-0.24,0.24v0.99
			c0,0.13,0.11,0.24,0.24,0.24h0.99c0.13,0,0.24-0.11,0.24-0.24v-0.99c0-0.13-0.11-0.24-0.24-0.24H42.73z"/>
	</g>
	<g>
		<path class="st0" d="M43.22,44.65L43.22,44.65c-0.54,0-0.98-0.44-0.98-0.98v0c0-0.54,0.44-0.98,0.98-0.98l0,0
			c0.54,0,0.98,0.44,0.98,0.98v0C44.2,44.21,43.76,44.65,43.22,44.65z"/>
		<path class="st1" d="M43.72,44.89h-0.99c-0.4,0-0.73-0.33-0.73-0.73v-0.99c0-0.4,0.33-0.73,0.73-0.73h0.99
			c0.4,0,0.73,0.33,0.73,0.73v0.99C44.45,44.57,44.12,44.89,43.72,44.89z M42.73,42.93c-0.13,0-0.24,0.11-0.24,0.24v0.99
			c0,0.13,0.11,0.24,0.24,0.24h0.99c0.13,0,0.24-0.11,0.24-0.24v-0.99c0-0.13-0.11-0.24-0.24-0.24H42.73z"/>
	</g>
	<g>
		<path class="st0" d="M109.88,24.7L109.88,24.7c-0.54,0-0.98-0.44-0.98-0.98v0c0-0.54,0.44-0.98,0.98-0.98l0,0
			c0.54,0,0.98,0.44,0.98,0.98v0C110.86,24.26,110.42,24.7,109.88,24.7z"/>
		<path class="st1" d="M110.37,24.95h-0.99c-0.4,0-0.73-0.33-0.73-0.73v-0.99c0-0.4,0.33-0.73,0.73-0.73h0.99
			c0.4,0,0.73,0.33,0.73,0.73v0.99C111.1,24.62,110.77,24.95,110.37,24.95z M109.38,22.99c-0.13,0-0.24,0.11-0.24,0.24v0.99
			c0,0.13,0.11,0.24,0.24,0.24h0.99c0.13,0,0.24-0.11,0.24-0.24v-0.99c0-0.13-0.11-0.24-0.24-0.24H109.38z"/>
	</g>
	<g>
		<path class="st0" d="M109.88,44.65L109.88,44.65c-0.54,0-0.98-0.44-0.98-0.98v0c0-0.54,0.44-0.98,0.98-0.98l0,0
			c0.54,0,0.98,0.44,0.98,0.98v0C110.86,44.21,110.42,44.65,109.88,44.65z"/>
		<path class="st1" d="M110.37,44.89h-0.99c-0.4,0-0.73-0.33-0.73-0.73v-0.99c0-0.4,0.33-0.73,0.73-0.73h0.99
			c0.4,0,0.73,0.33,0.73,0.73v0.99C111.1,44.57,110.77,44.89,110.37,44.89z M109.38,42.93c-0.13,0-0.24,0.11-0.24,0.24v0.99
			c0,0.13,0.11,0.24,0.24,0.24h0.99c0.13,0,0.24-0.11,0.24-0.24v-0.99c0-0.13-0.11-0.24-0.24-0.24H109.38z"/>
	</g>
	<g>
		<circle class="st0" cx="183.58" cy="34.16" r="5.25"/>
	</g>
	<g>
		<g>
			<g>
				<path class="st0" d="M113.61,79.1c-0.64,0-1.16-0.52-1.16-1.16c0-0.64,0.52-1.16,1.16-1.16s1.16,0.52,1.16,1.16
					C114.77,78.59,114.25,79.1,113.61,79.1z"/>
			</g>
		</g>
		<g>
			<g>
				<g>
					<path class="st1" d="M113.61,77.04c0.5,0,0.91,0.41,0.91,0.91c0,0.5-0.41,0.91-0.91,0.91c-0.5,0-0.91-0.41-0.91-0.91
						C112.7,77.45,113.11,77.04,113.61,77.04 M113.61,76.55c-0.77,0-1.4,0.63-1.4,1.4c0,0.77,0.63,1.4,1.4,1.4s1.4-0.63,1.4-1.4
						C115.01,77.18,114.38,76.55,113.61,76.55L113.61,76.55z"/>
				</g>
			</g>
		</g>
	</g>
	<g>
		<g>
			<circle class="st1" cx="113.61" cy="77.95" r="0.55"/>
		</g>
	</g>
	<g>
		<g>
			<g>
				<path class="st0" d="M113.61,96.13c-0.64,0-1.16-0.52-1.16-1.16c0-0.64,0.52-1.16,1.16-1.16s1.16,0.52,1.16,1.16
					C114.77,95.61,114.25,96.13,113.61,96.13z"/>
			</g>
		</g>
		<g>
			<g>
				<path class="st1" d="M113.61,94.07c0.5,0,0.91,0.41,0.91,0.91c0,0.5-0.41,0.91-0.91,0.91c-0.5,0-0.91-0.41-0.91-0.91
					C112.7,94.47,113.11,94.07,113.61,94.07 M113.61,93.58c-0.77,0-1.4,0.63-1.4,1.4c0,0.77,0.63,1.4,1.4,1.4s1.4-0.63,1.4-1.4
					C115.01,94.21,114.38,93.58,113.61,93.58L113.61,93.58z"/>
			</g>
		</g>
	</g>
	<g>
		<g>
			<circle class="st1" cx="113.61" cy="94.98" r="0.55"/>
		</g>
	</g>
	<g>
		<g>
			<g>
				<circle class="st0" cx="113.61" cy="122.71" r="1.66"/>
			</g>
		</g>
		<g>
			<g>
				<g>
					<path class="st1" d="M113.61,121.29c0.78,0,1.42,0.64,1.42,1.42s-0.64,1.42-1.42,1.42c-0.78,0-1.42-0.64-1.42-1.42
						S112.83,121.29,113.61,121.29 M113.61,120.8c-1.05,0-1.91,0.86-1.91,1.91s0.86,1.91,1.91,1.91s1.91-0.86,1.91-1.91
						S114.66,120.8,113.61,120.8L113.61,120.8z"/>
				</g>
			</g>
		</g>
	</g>
	<g>
		<g>
			<circle class="st1" cx="113.61" cy="122.71" r="0.85"/>
		</g>
	</g>
	<g>
		<g>
			<g>
				<circle class="st0" cx="189.43" cy="40.82" r="1.66"/>
			</g>
		</g>
		<g>
			<g>
				<path class="st1" d="M189.43,39.4c0.78,0,1.42,0.64,1.42,1.42c0,0.78-0.64,1.42-1.42,1.42s-1.42-0.64-1.42-1.42
					C188.01,40.04,188.64,39.4,189.43,39.4 M189.43,38.92c-1.05,0-1.91,0.86-1.91,1.91s0.86,1.91,1.91,1.91s1.91-0.86,1.91-1.91
					S190.48,38.92,189.43,38.92L189.43,38.92z"/>
			</g>
		</g>
	</g>
	<g>
		<g>
			<circle class="st6" cx="189.43" cy="40.82" r="0.85"/>
		</g>
	</g>
	<g>
		<g>
			<g>
				<path class="st0" d="M161.82,60.95c-0.64,0-1.16-0.52-1.16-1.16c0-0.64,0.52-1.16,1.16-1.16c0.64,0,1.16,0.52,1.16,1.16
					C162.97,60.44,162.45,60.95,161.82,60.95z"/>
			</g>
		</g>
		<g>
			<g>
				<path class="st1" d="M161.82,58.89c0.5,0,0.91,0.41,0.91,0.91s-0.41,0.91-0.91,0.91s-0.91-0.41-0.91-0.91
					S161.31,58.89,161.82,58.89 M161.82,58.4c-0.77,0-1.4,0.63-1.4,1.4c0,0.77,0.63,1.4,1.4,1.4c0.77,0,1.4-0.63,1.4-1.4
					C163.21,59.03,162.59,58.4,161.82,58.4L161.82,58.4z"/>
			</g>
		</g>
	</g>
	<g>
		<g>
			<circle class="st1" cx="161.82" cy="59.8" r="0.55"/>
		</g>
	</g>
	<g>
		<g>
			<g>
				<path class="st0" d="M189.43,54.57c-0.64,0-1.16-0.52-1.16-1.16c0-0.64,0.52-1.16,1.16-1.16s1.16,0.52,1.16,1.16
					C190.58,54.06,190.06,54.57,189.43,54.57z"/>
			</g>
		</g>
		<g>
			<g>
				<path class="st1" d="M189.43,52.51c0.5,0,0.91,0.41,0.91,0.91c0,0.5-0.41,0.91-0.91,0.91s-0.91-0.41-0.91-0.91
					C188.51,52.92,188.92,52.51,189.43,52.51 M189.43,52.02c-0.77,0-1.4,0.63-1.4,1.4c0,0.77,0.63,1.4,1.4,1.4
					c0.77,0,1.4-0.63,1.4-1.4C190.83,52.65,190.2,52.02,189.43,52.02L189.43,52.02z"/>
			</g>
		</g>
	</g>
	<g>
		<g>
			<circle class="st1" cx="189.43" cy="53.42" r="0.55"/>
		</g>
	</g>
	<g>
		<g>
			<g>
				<path class="st0" d="M204.13,60.95c-0.64,0-1.16-0.52-1.16-1.16c0-0.64,0.52-1.16,1.16-1.16c0.64,0,1.16,0.52,1.16,1.16
					C205.29,60.44,204.77,60.95,204.13,60.95z"/>
			</g>
		</g>
		<g>
			<g>
				<g>
					<path class="st1" d="M204.13,58.89c0.5,0,0.91,0.41,0.91,0.91s-0.41,0.91-0.91,0.91s-0.91-0.41-0.91-0.91
						S203.63,58.89,204.13,58.89 M204.13,58.4c-0.77,0-1.4,0.63-1.4,1.4c0,0.77,0.63,1.4,1.4,1.4c0.77,0,1.4-0.63,1.4-1.4
						C205.53,59.03,204.9,58.4,204.13,58.4L204.13,58.4z"/>
				</g>
			</g>
		</g>
	</g>
	<g>
		<g>
			<circle class="st1" cx="204.13" cy="59.8" r="0.55"/>
		</g>
	</g>
	<g>
		<g>
			<rect x="205.38" y="59.55" class="st1" width="6.88" height="0.49"/>
		</g>
	</g>
	<g>
		<g>
			<path class="st1" d="M210.62,61.94c-0.06,0-0.13-0.02-0.17-0.07c-0.09-0.1-0.09-0.25,0-0.34l1.81-1.78l-1.8-1.67
				c-0.1-0.09-0.1-0.25-0.01-0.34c0.09-0.1,0.25-0.1,0.34-0.01l2.17,2.02l-2.17,2.14C210.75,61.92,210.68,61.94,210.62,61.94z"/>
		</g>
	</g>
	<g>
		<g>
			<g>
				<path class="st0" d="M109.73,35.42c-0.64,0-1.16-0.52-1.16-1.16s0.52-1.16,1.16-1.16c0.64,0,1.16,0.52,1.16,1.16
					S110.36,35.42,109.73,35.42z"/>
			</g>
		</g>
		<g>
			<g>
				<path class="st1" d="M109.73,33.36c0.5,0,0.91,0.41,0.91,0.91s-0.41,0.91-0.91,0.91s-0.91-0.41-0.91-0.91
					S109.22,33.36,109.73,33.36 M109.73,32.87c-0.77,0-1.4,0.63-1.4,1.4c0,0.77,0.63,1.4,1.4,1.4c0.77,0,1.4-0.63,1.4-1.4
					C111.13,33.5,110.5,32.87,109.73,32.87L109.73,32.87z"/>
			</g>
		</g>
	</g>
	<g>
		<g>
			<circle class="st1" cx="109.73" cy="34.27" r="0.55"/>
		</g>
	</g>
	<g>
		<g>
			<g>
				<path class="st7" d="M173.29,258.67c0,0-0.28,3.02-0.55,5.92c-0.17,1.7-0.33,3.35-0.44,4.34c-0.3,2.69-1.94,2.54-1.94,2.54
					h-20.07c0,0,0.12-1.21,0.6-2.54c0.4-1.09,3.73-0.65,6.02-1.54c2.29-0.9,7.92-6.07,7.92-6.07l0.19-2.64H173.29z"/>
			</g>
		</g>
		<g>
			<g>
				<path class="st8" d="M173.29,258.67c0,0-0.28,3.02-0.55,5.92l-4.37,0.21l-3.53-3.48l0.19-2.64H173.29z"/>
			</g>
		</g>
		<g>
			<g>
				<path class="st7" d="M209.34,271.01c0,0-8.36-0.2-10.31-0.2c-1.94,0-1.79-1.99-1.79-1.99l-0.13-4.33l-0.17-5.58h7.17l0.1,5.23
					l0.26,0.35l2.62,3.53C209.59,268.38,209.34,271.01,209.34,271.01z"/>
			</g>
		</g>
		<g>
			<g>
				<polygon class="st8" points="204.48,264.5 197.11,264.5 196.94,258.91 204.11,258.91 204.21,264.14 				"/>
			</g>
		</g>
		<g>
			<g>
				<path class="st9" d="M164.13,259.64h11.6c0,0,5.8-39.38,5.67-44.27c-0.13-4.88,1.89-36.58,1.89-36.58l1.01-5.09l11.34,85.93
					h10.97l-2.77-102.87l-39.7-0.73v68.17V259.64z"/>
			</g>
		</g>
		<g>
			<g>
				<path class="st8" d="M216.85,144.44l-5.37-25.05l-12.03,7.97c0,0-2.36,14.47,3.33,20.09c5.69,5.61,11.63,3.9,13.17,2.44
					C217.5,148.43,216.85,144.44,216.85,144.44z M201.79,138.76l-1.21-9.77l6.03,11.67L201.79,138.76z"/>
			</g>
		</g>
		<g>
			<g>
				<path class="st10" d="M211.95,144.37c-0.04,0-0.09-0.01-0.13-0.04l-4.95-3.11c-0.11-0.07-0.15-0.22-0.08-0.34
					c0.07-0.11,0.22-0.15,0.33-0.08l4.95,3.11c0.11,0.07,0.15,0.22,0.08,0.34C212.11,144.33,212.03,144.37,211.95,144.37z"/>
			</g>
		</g>
		<g>
			<g>
				<path class="st11" d="M185.13,84.38c-0.05,0.05-0.08,0.07-0.08,0.07l-2.88,1.13l-12.55-16.63c-5.9-1.28-1.97-7.33-1.97-7.33
					s0,0,0,0.01c0.02,0.12,0.06,0.22,0.12,0.31c0.81,1.4,5.08-0.4,11.71-1.61c7.06-1.28,9.57,7.78,10.4,13.68
					C190.66,79.5,185.8,83.82,185.13,84.38z"/>
			</g>
		</g>
		<g>
			<g>
				<polygon class="st12" points="184.3,173.7 187.53,165.56 188.25,203.6 				"/>
			</g>
		</g>
		<g>
			<g>
				<path class="st13" d="M185.13,84.38c-0.08-0.05-0.17-0.11-0.24-0.18c-3.21-3.04,1.99-5.36,2.31-8.3
					c0.32-2.94,0.47-3.86-0.83-6.32c-1.34-2.53-6.6-0.32-7.33-1.33c-0.72-1.02,5.43-2.33,3.46-3.94
					c-1.96-1.61-11.37,2.28-12.57,1.32c-0.96-0.78-1.84-2.88-2.16-3.68c0.81,1.4,5.08-0.4,11.71-1.61
					c7.06-1.28,9.57,7.78,10.4,13.68C190.66,79.5,185.8,83.82,185.13,84.38z"/>
			</g>
		</g>
		<g>
			<g>
				<path class="st14" d="M169.94,65.62c0,0-1.33,4.42-1.14,5.37c0.19,0.95-1.15,3.76-1.85,4.37c-0.69,0.61-0.56,2.21,1.21,2.64
					c0,0,0.56,1.6,0.3,2.86c-0.26,1.26-1.13,6.37,5.94,6.2l0.56,4.59l11-2.38l-1.08-5.07c0,0-4.33,0.61-6.02-4.51
					c0,0,4.42,0.69,4.12-3.64c-0.56-1.39-2.99-2.38-5.46,1c0,0-1.52,0-0.35-3.81s1-3.38,1-3.38s-3.12,1.73-2.9-2.08
					c0,0,0.13-0.74-1.34-0.74S170.11,66.58,169.94,65.62z"/>
			</g>
		</g>
		<g>
			<g>
				<path class="st11" d="M179.19,77.85c-0.01,0-0.02,0-0.03,0c-0.05-0.02-0.09-0.06-0.09-0.12c0-0.71,0.21-1.22,0.63-1.52
					c0.75-0.55,1.9-0.18,1.94-0.17c0.06,0.02,0.1,0.09,0.08,0.15c-0.02,0.06-0.09,0.1-0.15,0.08c-0.01,0-1.07-0.34-1.73,0.13
					c-0.29,0.21-0.46,0.56-0.51,1.03c0.21-0.14,0.57-0.25,1.06,0.01c0.06,0.03,0.08,0.11,0.05,0.16c-0.03,0.06-0.11,0.08-0.16,0.05
					c-0.65-0.35-0.96,0.11-0.98,0.13C179.27,77.83,179.23,77.85,179.19,77.85z"/>
			</g>
		</g>
		<g>
			<g>
				
					<ellipse transform="matrix(0.2085 -0.978 0.978 0.2085 62.1483 226.0805)" class="st0" cx="170.75" cy="74.64" rx="0.87" ry="1.26"/>
			</g>
		</g>
		<g>
			<g>
				<g>
					<polygon class="st0" points="173.1,90.95 185.9,87.72 188.04,93.82 172.81,95.12 					"/>
				</g>
			</g>
			<g>
				<g>
					<path class="st15" d="M185.82,87.86l2.06,5.85l-14.94,1.28l0.28-3.94L185.82,87.86 M185.97,87.57l-12.99,3.28l-0.31,4.4
						l15.53-1.33L185.97,87.57L185.97,87.57z"/>
				</g>
			</g>
		</g>
		<g>
			<g>
				<path class="st8" d="M162.85,126.05c0,0-4.68,25.3-8.88,25.39c-4.2,0.08-6.78-1.86-7.59-7.19c-0.81-5.33-4.52-31.74-4.52-31.74
					s-2.47-10.43-0.9-12.26c0,0,0.54-0.64,1.53,0c0,0-0.13-1.7,1.98-0.89c0,0,0.22-1.33,2.11-0.22l-0.31-4.97
					c-0.02-0.38,0.28-0.7,0.65-0.7l0,0c0.32,0,0.6,0.23,0.65,0.55c0.3,1.86,1.27,7.92,1.57,9.55c0.36,1.93,0.4,7.05-0.18,8.44
					c-0.58,1.39-0.9,3.46-0.36,5.93c0.54,2.47,1.79,6.93,1.79,6.93l1.27-4.82L162.85,126.05z"/>
			</g>
		</g>
		<g>
			<g>
				<path class="st10" d="M148.1,135.61c-0.02,0-0.03,0-0.05-0.01c-0.13-0.03-0.21-0.16-0.19-0.29l2.23-10.11
					c0.03-0.13,0.16-0.21,0.29-0.19c0.13,0.03,0.21,0.16,0.19,0.29l-2.23,10.11C148.31,135.53,148.21,135.61,148.1,135.61z"/>
			</g>
		</g>
		<g>
			<g>
				<path class="st10" d="M142.88,102.48c-0.12,0-0.22-0.08-0.24-0.2l-0.29-1.63c-0.02-0.13,0.06-0.26,0.2-0.28
					c0.13-0.02,0.26,0.06,0.28,0.2l0.29,1.63c0.02,0.13-0.06,0.26-0.2,0.28C142.91,102.48,142.89,102.48,142.88,102.48z"/>
			</g>
		</g>
		<g>
			<g>
				<path class="st10" d="M144.86,101.67c-0.12,0-0.22-0.08-0.24-0.2l-0.29-1.63c-0.02-0.13,0.06-0.26,0.2-0.28
					c0.13-0.02,0.26,0.06,0.28,0.2l0.29,1.63c0.02,0.13-0.06,0.26-0.2,0.28C144.89,101.67,144.88,101.67,144.86,101.67z"/>
			</g>
		</g>
		<g>
			<g>
				<path class="st10" d="M146.77,101.41c-0.12,0-0.22-0.08-0.24-0.2l-0.29-1.63c-0.02-0.13,0.06-0.26,0.2-0.28
					c0.13-0.02,0.26,0.06,0.28,0.2l0.29,1.63c0.02,0.13-0.06,0.26-0.2,0.28C146.8,101.41,146.78,101.41,146.77,101.41z"/>
			</g>
		</g>
		<g>
			<g>
				<g>
					<path class="st0" d="M164.37,128.87c-0.04,0-0.11-0.07-0.2-0.26c-1.02-2.28-12.21-7.08-13.46-7.61
						c0.37-1.49,4.02-16.12,4.26-17.52c0.2-1.23,2.84-2.74,3.44-3.06l7.84,19.65C165.75,124.4,164.91,128.87,164.37,128.87
						L164.37,128.87z"/>
				</g>
			</g>
			<g>
				<g>
					<path class="st15" d="M158.35,100.59l7.78,19.49c-0.45,3.89-1.24,8.21-1.75,8.64c-0.02-0.03-0.05-0.08-0.09-0.17
						c-1.02-2.27-11.78-6.94-13.42-7.63c0.49-1.95,4-16.05,4.23-17.42C155.27,102.49,157.32,101.16,158.35,100.59 M158.48,100.24
						c0,0-3.38,1.76-3.62,3.22c-0.24,1.45-4.28,17.61-4.28,17.61s12.44,5.25,13.49,7.59c0.1,0.23,0.2,0.33,0.31,0.33
						c0.97,0,2.01-8.94,2.01-8.94L158.48,100.24L158.48,100.24z"/>
				</g>
			</g>
		</g>
		<g>
			<g>
				<g>
					<path class="st0" d="M201.56,128.12c-0.2-1.98-1.55-18.18,6.5-24.62c0.19,0.27,0.7,1.12,1.13,2.58
						c0.52,1.76,3.12,13.66,3.36,14.77L201.56,128.12z"/>
				</g>
			</g>
			<g>
				<g>
					<path class="st15" d="M208.03,103.68c0.22,0.35,0.66,1.15,1.05,2.43c0.51,1.72,3.01,13.17,3.34,14.68l-10.75,7.12
						C201.41,125.25,200.37,109.95,208.03,103.68 M208.08,103.33c-8.8,6.89-6.62,25.01-6.62,25.01l11.23-7.43
						c0,0-2.83-13-3.38-14.86C208.76,104.19,208.08,103.33,208.08,103.33L208.08,103.33z"/>
				</g>
			</g>
		</g>
		<g>
			<g>
				<path class="st15" d="M164.66,126.2c-2.19-2.69-13.53-6.98-13.64-7.02l0.17-0.46c0.47,0.18,11.58,4.38,13.85,7.17L164.66,126.2z
					"/>
			</g>
		</g>
		<g>
			<g>
				<path class="st15" d="M200.75,126.66l-0.33-0.36c0.34-0.32,8.46-7.83,11.98-7.59l-0.03,0.49
					C209.02,118.96,200.83,126.58,200.75,126.66z"/>
			</g>
		</g>
		<g>
			<g>
				<path class="st16" d="M178.18,92.88c0,0-9.8,2.72-13.37,4.61c-3.56,1.89-7.4,2.58-8.8,4.61c-1.4,2.03,8.89,19.06,8.93,19.62
					s-0.18,7.27-0.18,7.27s-0.01,5.42-0.08,8.22c-0.07,2.79-1.47,19.3-1.05,20.14c0.42,0.84,36.6,4.54,41,0
					c0,0-3.68-22.37-2.43-29.36c1.25-6.99,3.5-14.6,3.5-14.6l3.62-7.61c0,0-0.37-3.87-7.86-6.87S190.86,91.23,178.18,92.88z"/>
			</g>
		</g>
		<g>
			<g>
				<path class="st17" d="M165.16,121.82l-0.44-0.21c2.01-4.16-7.58-20.28-7.67-20.44l0.42-0.25
					C157.87,101.59,167.28,117.42,165.16,121.82z"/>
			</g>
		</g>
		<g>
			<g>
				
					<rect x="156.12" y="103.15" transform="matrix(0.8621 -0.5067 0.5067 0.8621 -30.7043 93.9529)" class="st17" width="2.31" height="0.49"/>
			</g>
		</g>
		<g>
			<g>
				
					<rect x="156.56" y="104.82" transform="matrix(0.8938 -0.4484 0.4484 0.8938 -30.3412 81.9723)" class="st17" width="2.76" height="0.49"/>
			</g>
		</g>
		<g>
			<g>
				
					<rect x="157.26" y="106.45" transform="matrix(0.9117 -0.4109 0.4109 0.9117 -29.8242 74.6507)" class="st17" width="2.92" height="0.49"/>
			</g>
		</g>
		<g>
			<g>
				
					<rect x="158.16" y="108.36" transform="matrix(0.9233 -0.384 0.384 0.9233 -29.4612 69.6325)" class="st17" width="3" height="0.49"/>
			</g>
		</g>
		<g>
			<g>
				
					<rect x="159.09" y="110.26" transform="matrix(0.9339 -0.3575 0.3575 0.9339 -28.9024 64.6703)" class="st17" width="2.72" height="0.49"/>
			</g>
		</g>
		<g>
			<g>
				
					<rect x="159.95" y="111.9" transform="matrix(0.9247 -0.3808 0.3808 0.9247 -30.5434 69.9054)" class="st17" width="2.88" height="0.49"/>
			</g>
		</g>
		<g>
			<g>
				
					<rect x="160.98" y="113.89" transform="matrix(0.9558 -0.2939 0.2939 0.9558 -26.3743 52.7447)" class="st17" width="2.69" height="0.49"/>
			</g>
		</g>
		<g>
			<g>
				
					<rect x="162.28" y="115.9" transform="matrix(0.9558 -0.2939 0.2939 0.9558 -26.9193 53.1328)" class="st17" width="2.13" height="0.49"/>
			</g>
		</g>
		<g>
			<g>
				
					<rect x="163.12" y="117.91" transform="matrix(0.9754 -0.2207 0.2207 0.9754 -22.0273 39.1094)" class="st17" width="1.86" height="0.49"/>
			</g>
		</g>
		<g>
			<g>
				<rect x="164.36" y="119.83" class="st17" width="0.59" height="0.49"/>
			</g>
		</g>
		<g>
			<g>
				<path class="st17" d="M175.32,95.26c-1.33,0-2.18-0.02-2.21-0.02c-0.13,0-0.24-0.11-0.24-0.25c0-0.13,0.1-0.25,0.25-0.24
					c0.11,0,10.68,0.24,16.2-1c0.13-0.03,0.26,0.05,0.29,0.18c0.03,0.13-0.05,0.26-0.18,0.29
					C185.41,95.13,178.76,95.26,175.32,95.26z"/>
			</g>
		</g>
		<g>
			<g>
				<path class="st17" d="M202.19,128.23c-0.1,0-0.19-0.06-0.23-0.16c-2.1-5.8,4.48-24.54,4.76-25.34c0.04-0.13,0.18-0.19,0.31-0.15
					c0.13,0.04,0.19,0.18,0.15,0.31c-0.07,0.19-6.8,19.38-4.76,25.01c0.05,0.13-0.02,0.27-0.15,0.31
					C202.25,128.22,202.22,128.23,202.19,128.23z"/>
			</g>
		</g>
		<g>
			<g>
				<path class="st17" d="M208.33,107.23c-0.06,0-0.12-0.02-0.16-0.06l-1.94-1.76c-0.1-0.09-0.11-0.24-0.02-0.34
					c0.09-0.1,0.24-0.11,0.34-0.02l1.94,1.76c0.1,0.09,0.11,0.24,0.02,0.34C208.46,107.2,208.39,107.23,208.33,107.23z"/>
			</g>
		</g>
		<g>
			<g>
				<path class="st17" d="M207.54,109.06c-0.05,0-0.1-0.01-0.14-0.04l-2.07-1.47c-0.11-0.08-0.13-0.23-0.06-0.34
					c0.08-0.11,0.23-0.13,0.34-0.06l2.07,1.47c0.11,0.08,0.13,0.23,0.06,0.34C207.69,109.03,207.62,109.06,207.54,109.06z"/>
			</g>
		</g>
		<g>
			<g>
				<path class="st17" d="M206.57,111.12c-0.06,0-0.11-0.02-0.16-0.06l-1.72-1.49c-0.1-0.09-0.11-0.24-0.02-0.34
					c0.09-0.1,0.24-0.11,0.34-0.02l1.72,1.49c0.1,0.09,0.11,0.24,0.02,0.34C206.71,111.09,206.64,111.12,206.57,111.12z"/>
			</g>
		</g>
		<g>
			<g>
				<path class="st17" d="M205.82,112.82c-0.04,0-0.08-0.01-0.12-0.03l-1.45-0.81c-0.12-0.07-0.16-0.21-0.09-0.33
					c0.07-0.12,0.21-0.16,0.33-0.09l1.45,0.81c0.12,0.07,0.16,0.21,0.09,0.33C205.99,112.77,205.91,112.82,205.82,112.82z"/>
			</g>
		</g>
		<g>
			<g>
				<path class="st17" d="M205.1,114.66c-0.04,0-0.07-0.01-0.11-0.02l-1.44-0.71c-0.12-0.06-0.17-0.21-0.11-0.33
					c0.06-0.12,0.21-0.17,0.33-0.11l1.44,0.71c0.12,0.06,0.17,0.21,0.11,0.33C205.27,114.61,205.19,114.66,205.1,114.66z"/>
			</g>
		</g>
		<g>
			<g>
				<path class="st17" d="M204.63,116.51c-0.02,0-0.05,0-0.07-0.01l-1.49-0.44c-0.13-0.04-0.2-0.17-0.16-0.3
					c0.04-0.13,0.17-0.2,0.3-0.16l1.49,0.44c0.13,0.04,0.2,0.17,0.16,0.3C204.83,116.44,204.74,116.51,204.63,116.51z"/>
			</g>
		</g>
		<g>
			<g>
				<path class="st17" d="M204.14,118.36c-0.02,0-0.03,0-0.05,0l-1.43-0.3c-0.13-0.03-0.22-0.16-0.19-0.29
					c0.03-0.13,0.16-0.21,0.29-0.19l1.43,0.3c0.13,0.03,0.22,0.16,0.19,0.29C204.35,118.28,204.25,118.36,204.14,118.36z"/>
			</g>
		</g>
		<g>
			<g>
				<path class="st17" d="M203.66,120.11c-0.01,0-0.03,0-0.04,0l-1.3-0.22c-0.13-0.02-0.22-0.15-0.2-0.28
					c0.02-0.13,0.15-0.22,0.28-0.2l1.3,0.22c0.13,0.02,0.22,0.15,0.2,0.28C203.88,120.03,203.78,120.11,203.66,120.11z"/>
			</g>
		</g>
		<g>
			<g>
				<path class="st17" d="M203.15,122.1c-0.02,0-0.04,0-0.06-0.01l-1.09-0.28c-0.13-0.03-0.21-0.17-0.18-0.3
					c0.03-0.13,0.16-0.21,0.3-0.18l1.09,0.28c0.13,0.03,0.21,0.17,0.18,0.3C203.35,122.02,203.25,122.1,203.15,122.1z"/>
			</g>
		</g>
		<g>
			<g>
				<path class="st17" d="M202.71,124.17c-0.02,0-0.05,0-0.07-0.01l-0.86-0.28c-0.13-0.04-0.2-0.18-0.16-0.31
					c0.04-0.13,0.18-0.2,0.31-0.16l0.86,0.28c0.13,0.04,0.2,0.18,0.16,0.31C202.91,124.1,202.81,124.17,202.71,124.17z"/>
			</g>
		</g>
		<g>
			<g>
				<path class="st17" d="M187.22,94.32c-0.04,0-0.07-0.01-0.11-0.03c-0.12-0.06-0.17-0.21-0.11-0.33c0.04-0.08-0.12-0.45-0.36-0.77
					c-0.08-0.11-0.06-0.26,0.04-0.34c0.11-0.08,0.26-0.06,0.34,0.04c0.15,0.19,0.63,0.86,0.41,1.28
					C187.4,94.27,187.31,94.32,187.22,94.32z"/>
			</g>
		</g>
		<g>
			<g>
				<path class="st17" d="M185.98,94.57c-0.01,0-0.02,0-0.04,0c-0.13-0.02-0.23-0.14-0.21-0.28c0.04-0.28-0.29-0.98-0.53-1.39
					c-0.07-0.11-0.03-0.26,0.08-0.33c0.11-0.07,0.26-0.03,0.33,0.08c0.11,0.19,0.68,1.15,0.6,1.71
					C186.2,94.48,186.09,94.57,185.98,94.57z"/>
			</g>
		</g>
		<g>
			<g>
				<path class="st17" d="M184.66,94.75c-0.13,0-0.24-0.1-0.24-0.23c-0.02-0.45-0.49-1.35-0.66-1.67c-0.07-0.12-0.03-0.27,0.09-0.33
					c0.12-0.07,0.26-0.03,0.33,0.09c0.07,0.13,0.7,1.24,0.73,1.89C184.91,94.63,184.81,94.74,184.66,94.75
					C184.67,94.75,184.67,94.75,184.66,94.75z"/>
			</g>
		</g>
		<g>
			<g>
				<path class="st17" d="M183.27,94.75c-0.13,0-0.24-0.1-0.24-0.23c-0.03-0.77-0.62-1.59-0.63-1.59c-0.08-0.11-0.06-0.26,0.05-0.34
					c0.11-0.08,0.26-0.06,0.34,0.05c0.03,0.04,0.68,0.94,0.72,1.86c0.01,0.13-0.1,0.25-0.23,0.25
					C183.27,94.75,183.27,94.75,183.27,94.75z"/>
			</g>
		</g>
		<g>
			<g>
				<path class="st17" d="M181.5,95.12c-0.13,0-0.23-0.1-0.24-0.23c-0.1-1.57-0.67-1.9-0.67-1.9c-0.11-0.06-0.16-0.21-0.1-0.33
					c0.06-0.12,0.2-0.17,0.32-0.11c0.08,0.04,0.82,0.45,0.94,2.3c0.01,0.13-0.09,0.25-0.23,0.26
					C181.51,95.12,181.5,95.12,181.5,95.12z"/>
			</g>
		</g>
		<g>
			<g>
				<path class="st17" d="M179.78,94.98c-0.13,0-0.24-0.11-0.24-0.24c0-1.06-0.59-1.47-0.62-1.49c-0.11-0.07-0.14-0.22-0.07-0.34
					c0.07-0.11,0.22-0.14,0.33-0.07c0.03,0.02,0.84,0.55,0.84,1.89C180.02,94.87,179.91,94.98,179.78,94.98z"/>
			</g>
		</g>
		<g>
			<g>
				<path class="st17" d="M178.18,95.12c-0.11,0-0.2-0.07-0.23-0.18c-0.24-0.85-0.67-1.3-0.67-1.3c-0.09-0.1-0.09-0.25,0-0.34
					c0.1-0.09,0.25-0.09,0.34,0c0.02,0.02,0.52,0.53,0.79,1.51c0.04,0.13-0.04,0.26-0.17,0.3C178.22,95.12,178.2,95.12,178.18,95.12
					z"/>
			</g>
		</g>
		<g>
			<g>
				<path class="st17" d="M176.27,95.26c-0.13,0-0.24-0.1-0.24-0.24c-0.02-0.78-0.48-0.96-0.5-0.97c-0.12-0.05-0.19-0.18-0.15-0.31
					c0.04-0.13,0.18-0.2,0.3-0.15c0.03,0.01,0.8,0.27,0.83,1.41C176.52,95.15,176.41,95.26,176.27,95.26
					C176.27,95.26,176.27,95.26,176.27,95.26z"/>
			</g>
		</g>
		<g>
			<g>
				<path class="st17" d="M188.39,156.92c-12.3,0-24.35-2.35-24.52-2.38c-0.13-0.03-0.22-0.15-0.19-0.29
					c0.03-0.13,0.16-0.22,0.29-0.19c0.25,0.05,25.24,4.92,39.9,0.57c0.13-0.04,0.26,0.04,0.3,0.16c0.04,0.13-0.04,0.26-0.16,0.3
					C199.44,156.45,193.89,156.92,188.39,156.92z"/>
			</g>
		</g>
		<g>
			<g>
				<path class="st17" d="M165.24,157.74c-0.13,0-0.24-0.11-0.24-0.24v-2.95c0-0.13,0.11-0.24,0.24-0.24s0.24,0.11,0.24,0.24v2.95
					C165.48,157.64,165.37,157.74,165.24,157.74z"/>
			</g>
		</g>
		<g>
			<g>
				<path class="st17" d="M166.72,157.94c-0.13,0-0.24-0.11-0.24-0.24v-2.85c0-0.13,0.11-0.24,0.24-0.24c0.13,0,0.24,0.11,0.24,0.24
					v2.85C166.96,157.83,166.86,157.94,166.72,157.94z"/>
			</g>
		</g>
		<g>
			<g>
				<path class="st17" d="M168.35,158.21c-0.13,0-0.24-0.11-0.24-0.24v-2.85c0-0.13,0.11-0.24,0.24-0.24s0.24,0.11,0.24,0.24v2.85
					C168.59,158.1,168.48,158.21,168.35,158.21z"/>
			</g>
		</g>
		<g>
			<g>
				<path class="st17" d="M169.99,158.32c-0.13,0-0.24-0.11-0.24-0.24v-2.74c0-0.13,0.11-0.24,0.24-0.24c0.13,0,0.24,0.11,0.24,0.24
					v2.74C170.24,158.21,170.13,158.32,169.99,158.32z"/>
			</g>
		</g>
		<g>
			<g>
				<path class="st17" d="M171.63,158.48c-0.13,0-0.24-0.11-0.24-0.24v-2.58c0-0.13,0.11-0.24,0.24-0.24s0.24,0.11,0.24,0.24v2.58
					C171.87,158.37,171.76,158.48,171.63,158.48z"/>
			</g>
		</g>
		<g>
			<g>
				<path class="st17" d="M173.54,158.63c-0.13,0-0.24-0.11-0.24-0.24v-2.45c0-0.13,0.11-0.24,0.24-0.24s0.24,0.11,0.24,0.24v2.45
					C173.78,158.52,173.67,158.63,173.54,158.63z"/>
			</g>
		</g>
		<g>
			<g>
				<path class="st17" d="M175.63,158.89c-0.13,0-0.24-0.11-0.24-0.24v-2.45c0-0.13,0.11-0.24,0.24-0.24s0.24,0.11,0.24,0.24v2.45
					C175.87,158.78,175.76,158.89,175.63,158.89z"/>
			</g>
		</g>
		<g>
			<g>
				<path class="st17" d="M177.5,159.02c-0.13,0-0.24-0.11-0.24-0.24v-2.45c0-0.13,0.11-0.24,0.24-0.24s0.24,0.11,0.24,0.24v2.45
					C177.74,158.91,177.63,159.02,177.5,159.02z"/>
			</g>
		</g>
		<g>
			<g>
				<path class="st17" d="M179.57,159.13c-0.13,0-0.24-0.11-0.24-0.24v-2.45c0-0.13,0.11-0.24,0.24-0.24s0.24,0.11,0.24,0.24v2.45
					C179.82,159.02,179.71,159.13,179.57,159.13z"/>
			</g>
		</g>
		<g>
			<g>
				<path class="st17" d="M181.54,159.24c-0.13,0-0.24-0.11-0.24-0.24v-2.45c0-0.13,0.11-0.24,0.24-0.24s0.24,0.11,0.24,0.24v2.45
					C181.78,159.13,181.67,159.24,181.54,159.24z"/>
			</g>
		</g>
		<g>
			<g>
				<path class="st17" d="M183.65,159.39c-0.13,0-0.24-0.11-0.24-0.24v-2.45c0-0.13,0.11-0.24,0.24-0.24s0.24,0.11,0.24,0.24v2.45
					C183.89,159.28,183.78,159.39,183.65,159.39z"/>
			</g>
		</g>
		<g>
			<g>
				<path class="st17" d="M185.94,159.49c-0.13,0-0.24-0.11-0.24-0.24v-2.45c0-0.13,0.11-0.24,0.24-0.24s0.24,0.11,0.24,0.24v2.45
					C186.18,159.38,186.08,159.49,185.94,159.49z"/>
			</g>
		</g>
		<g>
			<g>
				<path class="st17" d="M188.11,159.49c-0.13,0-0.24-0.11-0.24-0.24v-2.45c0-0.13,0.11-0.24,0.24-0.24s0.24,0.11,0.24,0.24v2.45
					C188.35,159.38,188.25,159.49,188.11,159.49z"/>
			</g>
		</g>
		<g>
			<g>
				<path class="st17" d="M190.18,159.49c-0.13,0-0.24-0.11-0.24-0.24v-2.45c0-0.13,0.11-0.24,0.24-0.24s0.24,0.11,0.24,0.24v2.45
					C190.43,159.38,190.32,159.49,190.18,159.49z"/>
			</g>
		</g>
		<g>
			<g>
				<path class="st17" d="M192.31,159.49c-0.13,0-0.24-0.11-0.24-0.24v-2.45c0-0.13,0.11-0.24,0.24-0.24s0.24,0.11,0.24,0.24v2.45
					C192.56,159.38,192.45,159.49,192.31,159.49z"/>
			</g>
		</g>
		<g>
			<g>
				<path class="st17" d="M194.44,159.39c-0.13,0-0.24-0.11-0.24-0.24v-2.45c0-0.13,0.11-0.24,0.24-0.24s0.24,0.11,0.24,0.24v2.45
					C194.69,159.28,194.58,159.39,194.44,159.39z"/>
			</g>
		</g>
		<g>
			<g>
				<path class="st17" d="M196.62,159.23c-0.13,0-0.24-0.11-0.24-0.24v-2.45c0-0.13,0.11-0.24,0.24-0.24s0.24,0.11,0.24,0.24v2.45
					C196.86,159.12,196.75,159.23,196.62,159.23z"/>
			</g>
		</g>
		<g>
			<g>
				<path class="st17" d="M198.75,159.01c-0.13,0-0.24-0.11-0.24-0.24v-2.45c0-0.13,0.11-0.24,0.24-0.24s0.24,0.11,0.24,0.24v2.45
					C198.99,158.9,198.88,159.01,198.75,159.01z"/>
			</g>
		</g>
		<g>
			<g>
				<path class="st17" d="M200.88,158.73c-0.13,0-0.24-0.11-0.24-0.24v-2.45c0-0.13,0.11-0.24,0.24-0.24s0.24,0.11,0.24,0.24v2.45
					C201.12,158.62,201.01,158.73,200.88,158.73z"/>
			</g>
		</g>
		<g>
			<g>
				<path class="st17" d="M203.01,158.16c-0.13,0-0.24-0.11-0.24-0.24v-2.45c0-0.13,0.11-0.24,0.24-0.24s0.24,0.11,0.24,0.24v2.45
					C203.25,158.05,203.14,158.16,203.01,158.16z"/>
			</g>
		</g>
		<g>
			<g>
				<path class="st13" d="M172.95,73.47c-0.1,0.03-0.22,0.02-0.32-0.03c-1.51-0.68-2.79-0.74-2.8-0.74
					c-0.27-0.01-0.48-0.24-0.47-0.5c0.01-0.27,0.23-0.48,0.5-0.47c0.06,0,1.47,0.06,3.17,0.82c0.24,0.11,0.35,0.4,0.24,0.64
					C173.2,73.33,173.08,73.43,172.95,73.47z"/>
			</g>
		</g>
		<g>
			<g>
				
					<ellipse transform="matrix(0.0311 -0.9995 0.9995 0.0311 90.3051 242.3586)" class="st18" cx="170.16" cy="74.6" rx="0.86" ry="0.7"/>
			</g>
		</g>
		<g>
			<g>
				<path class="st0" d="M168.94,78.92c0,0,2.33,0.84,3.04,0.35s-1.05,2.37-2.97,1.96L168.94,78.92z"/>
			</g>
		</g>
	</g>
	<g>
		<polygon class="st19" points="116.72,124.8 117.92,127.76 118.35,126.42 119.86,126.01 		"/>
	</g>
	<g>
		<path class="st19" d="M129.17,130.3h-8.3c-0.56,0-1.01-0.45-1.01-1.01v-1.17c0-0.56,0.45-1.01,1.01-1.01h8.3
			c0.56,0,1.01,0.45,1.01,1.01v1.17C130.18,129.85,129.73,130.3,129.17,130.3z"/>
	</g>
	<g>
		<polygon class="st20" points="65.26,67.58 66.46,70.54 66.88,69.2 68.4,68.79 		"/>
	</g>
	<g>
		<path class="st20" d="M80.33,73.08H69.41c-0.56,0-1.01-0.45-1.01-1.01v-1.17c0-0.56,0.45-1.01,1.01-1.01h10.92
			c0.56,0,1.01,0.45,1.01,1.01v1.17C81.34,72.63,80.89,73.08,80.33,73.08z"/>
	</g>
	<g>
		<circle class="st19" cx="69.79" cy="86.32" r="4.95"/>
	</g>
	<g>
		<defs>
			<circle id="SVGID_1_" cx="69.79" cy="86.32" r="4.95"/>
		</defs>
		<clipPath id="SVGID_2_">
			<use xlink:href="#SVGID_1_"  style="overflow:visible;"/>
		</clipPath>
		<g class="st21">
			<g>
				<g>
					<path class="st22" d="M68.91,81.82c-0.51,0.07-0.53,0.53-0.53,0.53s-0.34-0.21-0.54,0.04c-0.2,0.25,0,0.48,0,0.48
						s-0.45-0.23-0.72,0.19s0.07,0.74,0.07,0.74s-0.67,0.07-0.36,0.92c0,0-0.35,0.51,0.26,0.57c0,0-0.1,0.35,0.24,0.44
						s0.41-0.26,0.41-0.26s0.05,0.92,0.74,1.34l2.61-0.05c0,0,0.55-0.33,0.69-1.37c0.14-1.04-0.54-2.06-1.28-2.37
						c0,0,0.21-0.35-0.02-0.53c-0.22-0.17-0.58-0.01-0.58-0.01s-0.07-0.39-0.45-0.29C69.46,82.2,69.29,81.77,68.91,81.82z"/>
				</g>
			</g>
			<g>
				<g>
					<path class="st23" d="M71.85,98.52l-4.78-0.25c0,0,0.79-3.88,0.92-4.98c0.13-1.1,0.02-4.46,0.13-4.54
						c0.05-0.03,0.18-0.06,0.32-0.08c0.2-0.03,0.41-0.05,0.48-0.09C68.98,88.55,69,88.2,69,87.86c0.01-0.31,0-0.59,0-0.59l1.7-0.05
						c0,0-0.02,0.27-0.03,0.57c-0.01,0.32-0.01,0.66,0.02,0.7c0.04,0.04,0.38,0.11,0.67,0.17c0.22,0.04,0.4,0.07,0.4,0.07
						L71.85,98.52z"/>
				</g>
			</g>
			<g>
				<g>
					<path class="st24" d="M71.38,88.75c0,0.62-0.66,1.12-1.47,1.12s-1.47-0.5-1.47-1.12c0-0.02,0-0.05,0-0.07
						c0.2-0.03,0.41-0.05,0.48-0.09c0.05-0.03,0.07-0.6,0.08-1.01c0-0.12,0.01-0.23,0.01-0.3c0.25-0.15,0.56,0.35,0.9,0.35
						c0.28,0,0.57-0.51,0.8-0.4c0,0.08-0.01,0.21-0.01,0.35c-0.01,0.39-0.02,0.89,0,0.92c0.04,0.04,0.38,0.11,0.67,0.17
						C71.38,88.69,71.38,88.72,71.38,88.75z"/>
				</g>
			</g>
			<g>
				<g>
					<path class="st25" d="M68.19,88.72c0,0,0.01,5-0.34,6.62s-1.07,4.37-1.22,4.9c-0.15,0.53-0.6,3.17-0.64,3.69
						c-0.04,0.53-0.37,1.77-0.37,1.77s-1.11-2.18-0.54-5.48c0,0-1.49-3.29-1.46-3.61c0.03-0.32,1.01-5.14,1.15-5.39
						c0.14-0.24,0.58-1.49,0.95-1.62C66.09,89.47,68.19,88.72,68.19,88.72z"/>
				</g>
			</g>
			<g>
				<g>
					<path class="st25" d="M71.63,88.7c0,0,0.03,7.45,0.03,8.11s-0.02,3.28,0,4.02c0.02,0.74,0.05,4.87,0.05,4.87l2.44-0.07v-3.73
						l1.67,0.06c0,0-0.43-5.71-0.53-6.89s-0.9-5.05-1.66-5.55C72.87,89.02,72,88.72,71.63,88.7z"/>
				</g>
			</g>
			<g>
				<g>
					<path class="st26" d="M71.73,97.38C71.73,97.38,71.73,97.38,71.73,97.38c-0.04-0.01-0.06-0.03-0.05-0.06l1.2-6.36l-0.96-0.87
						l0.56-0.63l-0.78-0.61c-0.02-0.02-0.03-0.05-0.01-0.07c0.02-0.02,0.05-0.03,0.07-0.01l0.87,0.68l-0.57,0.63l0.93,0.84
						l-1.21,6.42C71.78,97.36,71.76,97.38,71.73,97.38z"/>
				</g>
			</g>
			<g>
				<g>
					<path class="st26" d="M74.06,101.92c-0.03,0-0.05-0.02-0.05-0.05c0-0.04-0.15-4.41-0.15-5.37c0-0.96-0.19-3.67-0.28-4.28
						c-0.09-0.61,0.05-2.35,0.05-2.42c0-0.03,0.03-0.05,0.06-0.05c0.03,0,0.05,0.03,0.05,0.06c0,0.02-0.15,1.8-0.05,2.4
						c0.1,0.61,0.28,3.33,0.28,4.29c0,0.95,0.15,5.32,0.15,5.36C74.11,101.9,74.09,101.92,74.06,101.92
						C74.06,101.92,74.06,101.92,74.06,101.92z"/>
				</g>
			</g>
			<g>
				<g>
					<path class="st26" d="M67.59,96.26c-0.02,0-0.05-0.02-0.05-0.04c0-0.01-0.27-1.27-0.51-2.53c-0.48-2.59-0.35-2.7-0.3-2.74
						c0.2-0.17,0.71-0.68,0.9-0.87l-0.89-0.14l0.76-0.95c0.02-0.02,0.05-0.03,0.07-0.01c0.02,0.02,0.03,0.05,0.01,0.07l-0.64,0.81
						L67.85,90l-0.07,0.07c-0.03,0.03-0.72,0.74-0.98,0.95c-0.08,0.1,0.07,1.6,0.84,5.17c0.01,0.03-0.01,0.06-0.04,0.06
						C67.6,96.26,67.6,96.26,67.59,96.26z"/>
				</g>
			</g>
			<g>
				<g>
					<path class="st26" d="M66.54,98.85c-0.02,0-0.04-0.01-0.05-0.04l-0.82-2.41l0-0.01c0-0.03,0.12-3.23,0.11-4.31
						c-0.01-1.08-0.21-2.25-0.22-2.26c0-0.03,0.01-0.06,0.04-0.06c0.03,0,0.06,0.01,0.06,0.04c0,0.01,0.2,1.19,0.22,2.28
						c0.01,1.06-0.1,4.11-0.11,4.31l0.81,2.39c0.01,0.03-0.01,0.06-0.03,0.07C66.55,98.85,66.54,98.85,66.54,98.85z"/>
				</g>
			</g>
			<g>
				<g>
					<path class="st27" d="M70.7,87.23c0,0.08-0.01,0.21-0.01,0.35c-0.16,0.19-0.36,0.35-0.6,0.44c0,0-0.53,0.2-1.1-0.44
						c0-0.12,0.01-0.23,0.01-0.3c0.25-0.15,0.56,0.35,0.9,0.35C70.19,87.63,70.48,87.12,70.7,87.23z"/>
				</g>
			</g>
			<g>
				<g>
					<path class="st28" d="M68.01,85.55c0,0,0.59-0.05,0.53-0.72c0,0,0.4-0.03,0.37-0.6c0,0,0.66,0.11,1.02-0.35
						c0,0,1.3-0.19,1.35,1.5c0,0,0.17-0.11,0.3-0.03c0.13,0.09,0.03,0.74-0.28,0.99c0,0-0.07-0.04-0.1,0.08
						c-0.03,0.12-0.36,1.12-1.11,1.38c0,0-0.96,0.36-1.69-1.45c0,0-0.05,0.09-0.16-0.01S67.72,85.67,68.01,85.55z"/>
				</g>
			</g>
			<g>
				<g>
					<circle class="st23" cx="68.32" cy="86.34" r="0.16"/>
				</g>
			</g>
			<g>
				<g>
					<circle class="st23" cx="71.29" cy="86.22" r="0.16"/>
				</g>
			</g>
			<g>
				<g>
					<path class="st29" d="M69.99,83.92l-0.12-0.08c0,0,0.16-0.23,0.18-0.49c0.03-0.33,0.43-0.38,0.45-0.39l0.02,0.14
						c0,0-0.3,0.04-0.32,0.26C70.16,83.65,69.99,83.91,69.99,83.92z"/>
				</g>
			</g>
			<g>
				<g>
					<path class="st29" d="M67.54,84.96c-0.1-0.07-0.26-0.28-0.17-0.58c0.08-0.23,0.26-0.31,0.39-0.32
						c-0.03-0.13-0.06-0.34,0.09-0.48c0.22-0.2,0.49-0.07,0.5-0.07l-0.06,0.13c-0.01,0-0.19-0.09-0.34,0.05
						c-0.15,0.14-0.03,0.42-0.02,0.42l0.05,0.12l-0.13-0.02c-0.03,0-0.26-0.04-0.35,0.22c-0.09,0.27,0.1,0.42,0.11,0.42L67.54,84.96
						z"/>
				</g>
			</g>
			<g>
				<g>
					<path class="st29" d="M69.27,83.7c-0.08-0.08-0.2-0.29-0.02-0.52c0.06-0.08,0.13-0.13,0.22-0.14c0.18-0.02,0.34,0.12,0.35,0.12
						l-0.09,0.11c-0.03-0.03-0.14-0.1-0.24-0.09c-0.05,0.01-0.09,0.03-0.12,0.08c-0.14,0.19,0,0.33,0.01,0.34L69.27,83.7z"/>
				</g>
			</g>
			<g>
				<g>
					<path class="st29" d="M68.16,84.69c0-0.01-0.04-0.31,0.13-0.51c0.09-0.11,0.22-0.16,0.39-0.17l0,0.14
						c-0.13,0-0.22,0.04-0.29,0.12c-0.13,0.15-0.1,0.4-0.1,0.4L68.16,84.69z"/>
				</g>
			</g>
			<g>
				<g>
					<path class="st22" d="M68.72,85.28c-0.02,0-0.04-0.01-0.05-0.03c-0.02-0.03-0.02-0.08,0.01-0.1c0.15-0.12,0.51-0.29,0.82-0.06
						c0.03,0.02,0.04,0.07,0.02,0.1c-0.02,0.03-0.07,0.04-0.1,0.02c-0.31-0.22-0.65,0.05-0.65,0.06
						C68.75,85.27,68.73,85.28,68.72,85.28z"/>
				</g>
			</g>
			<g>
				<g>
					<path class="st22" d="M70.95,85.28c-0.02,0-0.04-0.01-0.06-0.03c-0.07-0.09-0.15-0.15-0.25-0.16c-0.17-0.02-0.33,0.09-0.33,0.1
						c-0.03,0.02-0.08,0.02-0.1-0.01c-0.02-0.03-0.02-0.08,0.01-0.1c0.01-0.01,0.2-0.15,0.43-0.12c0.13,0.02,0.25,0.09,0.34,0.22
						c0.02,0.03,0.02,0.08-0.01,0.1C70.98,85.27,70.96,85.28,70.95,85.28z"/>
				</g>
			</g>
			<g>
				<g>
					<path class="st30" d="M69.95,86.38c-0.01,0-0.02,0-0.03,0l-0.23-0.01c-0.02,0-0.03-0.02-0.03-0.04c0-0.02,0.02-0.04,0.04-0.03
						l0.23,0.01c0.08,0,0.12-0.01,0.14-0.03c0.03-0.05,0-0.17-0.06-0.35c-0.13-0.35,0.07-0.62,0.07-0.63
						c0.01-0.02,0.03-0.02,0.05-0.01c0.02,0.01,0.02,0.03,0.01,0.05c0,0-0.18,0.25-0.06,0.56c0.08,0.22,0.11,0.34,0.06,0.42
						C70.09,86.37,70.02,86.38,69.95,86.38z"/>
				</g>
			</g>
			<g>
				<g>
					<path class="st0" d="M69.42,86.68h0.86c0,0-0.15,0.37-0.43,0.37S69.42,86.68,69.42,86.68z"/>
				</g>
			</g>
			<g>
				<g>
					<ellipse class="st22" cx="69.28" cy="85.53" rx="0.14" ry="0.16"/>
				</g>
			</g>
			<g>
				<g>
					<ellipse class="st22" cx="70.47" cy="85.53" rx="0.14" ry="0.16"/>
				</g>
			</g>
		</g>
	</g>
	<g>
		<path class="st2" d="M20.6,86.55h-4.92c-0.45,0-0.81-0.36-0.81-0.81v0c0-0.45,0.36-0.81,0.81-0.81h4.92
			c0.45,0,0.81,0.36,0.81,0.81v0C21.42,86.19,21.05,86.55,20.6,86.55z"/>
	</g>
	<g>
		<path class="st2" d="M116.32,87.13h-4.92c-0.45,0-0.81-0.36-0.81-0.81v0c0-0.45,0.36-0.81,0.81-0.81h4.92
			c0.45,0,0.81,0.36,0.81,0.81v0C117.13,86.77,116.77,87.13,116.32,87.13z"/>
	</g>
	<g>
		<path class="st2" d="M157.46,58.47H135.9c-0.45,0-0.81-0.36-0.81-0.81l0,0c0-0.45,0.36-0.81,0.81-0.81h21.56
			c0.45,0,0.81,0.36,0.81,0.81l0,0C158.27,58.1,157.91,58.47,157.46,58.47z"/>
	</g>
	<g>
		<path class="st2" d="M73.76,32.44H48.97c-0.97,0-1.76-0.79-1.76-1.76v0c0-0.97,0.79-1.76,1.76-1.76h24.79
			c0.97,0,1.76,0.79,1.76,1.76v0C75.52,31.65,74.73,32.44,73.76,32.44z"/>
	</g>
	<g>
		<path class="st2" d="M102.06,38.34H48.97c-0.97,0-1.76-0.79-1.76-1.76v0c0-0.97,0.79-1.76,1.76-1.76h53.09
			c0.97,0,1.76,0.79,1.76,1.76v0C103.82,37.55,103.03,38.34,102.06,38.34z"/>
	</g>
	<g>
		<path class="st2" d="M157.46,60.83H135.9c-0.45,0-0.81-0.36-0.81-0.81l0,0c0-0.45,0.36-0.81,0.81-0.81h21.56
			c0.45,0,0.81,0.36,0.81,0.81l0,0C158.27,60.47,157.91,60.83,157.46,60.83z"/>
	</g>
	<g>
		<path class="st2" d="M145.63,63.3h-9.65c-0.45,0-0.81-0.36-0.81-0.81v0c0-0.45,0.36-0.81,0.81-0.81h9.65
			c0.45,0,0.81,0.36,0.81,0.81v0C146.45,62.94,146.08,63.3,145.63,63.3z"/>
	</g>
	<g>
		<path class="st2" d="M18.37,88.7h-2.69c-0.45,0-0.81-0.36-0.81-0.81l0,0c0-0.45,0.36-0.81,0.81-0.81h2.69
			c0.45,0,0.81,0.36,0.81,0.81l0,0C19.18,88.33,18.82,88.7,18.37,88.7z"/>
	</g>
	<g>
		<g>
			<path d="M125.02,150.9H55.53c-0.27,0-0.49-0.22-0.49-0.49s0.22-0.49,0.49-0.49h69.49c0.27,0,0.49,0.22,0.49,0.49
				S125.29,150.9,125.02,150.9z"/>
		</g>
	</g>
	<g>
		<g>
			<rect x="88.36" y="150.65" width="0.97" height="117.4"/>
		</g>
	</g>
	<g>
		<g>
			<path d="M98.86,268.54H79.03c-0.27,0-0.49-0.22-0.49-0.49s0.22-0.49,0.49-0.49h19.83c0.27,0,0.49,0.22,0.49,0.49
				S99.13,268.54,98.86,268.54z"/>
		</g>
	</g>
	<g>
		<g>
			<g>
				<path class="st31" d="M104.41,119.96l6.06,28.43h11.7v1.78H61.85l-6.28-29.45c-0.3-1.41,0.77-2.75,2.22-2.76l43.65-0.38
					C102.87,117.57,104.11,118.56,104.41,119.96z"/>
			</g>
		</g>
		<g>
			<g>
				<polygon class="st0" points="102.76,121.02 108.71,148.52 63.51,148.52 57.44,121.02 				"/>
			</g>
		</g>
		<g>
			<g>
				<polygon class="st32" points="98.62,123.2 103.56,144.89 68.51,144.89 62.93,123.2 				"/>
			</g>
		</g>
		<g>
			<g>
				
					<ellipse transform="matrix(0.6455 -0.7638 0.7638 0.6455 -69.5661 101.6566)" class="st33" cx="74.72" cy="125.76" rx="1.01" ry="1.42"/>
			</g>
			<g>
				<path class="st34" d="M73.36,125.82c-0.13-0.38-0.09-0.75,0.1-1.02c0.18-0.26,0.49-0.4,0.85-0.4c0.74,0,1.52,0.58,1.77,1.32l0,0
					c0.13,0.38,0.09,0.75-0.1,1.02c-0.18,0.26-0.49,0.4-0.85,0.4C74.38,127.13,73.6,126.55,73.36,125.82z M73.73,124.99
					c-0.13,0.18-0.15,0.44-0.06,0.72c0.2,0.6,0.85,1.09,1.45,1.09c0.25,0,0.46-0.09,0.58-0.26c0.13-0.18,0.15-0.44,0.06-0.72l0,0
					c-0.2-0.6-0.85-1.09-1.45-1.09C74.06,124.73,73.85,124.82,73.73,124.99z"/>
			</g>
		</g>
		<g>
			<g>
				
					<ellipse transform="matrix(0.6455 -0.7638 0.7638 0.6455 -71.1254 98.2975)" class="st33" cx="70.32" cy="125.76" rx="1.01" ry="1.42"/>
			</g>
			<g>
				<path class="st34" d="M68.96,125.82c-0.13-0.38-0.09-0.75,0.1-1.02c0.18-0.26,0.49-0.4,0.85-0.4c0.74,0,1.52,0.58,1.77,1.32
					c0.13,0.38,0.09,0.75-0.1,1.02c-0.18,0.26-0.49,0.4-0.85,0.4C69.98,127.13,69.21,126.55,68.96,125.82z M69.34,124.99
					c-0.13,0.18-0.15,0.44-0.06,0.72c0.2,0.6,0.85,1.09,1.45,1.09c0.25,0,0.46-0.09,0.58-0.26c0.13-0.18,0.15-0.44,0.06-0.72l0,0
					c-0.2-0.6-0.85-1.09-1.45-1.09C69.66,124.73,69.45,124.82,69.34,124.99z"/>
			</g>
		</g>
		<g>
			<g>
				
					<ellipse transform="matrix(0.6455 -0.7638 0.7638 0.6455 -72.6238 95.0695)" class="st33" cx="66.09" cy="125.76" rx="1.01" ry="1.42"/>
			</g>
			<g>
				<path class="st34" d="M64.73,125.82c-0.13-0.38-0.09-0.75,0.1-1.02c0.18-0.26,0.49-0.4,0.85-0.4c0.74,0,1.52,0.58,1.77,1.32
					c0.13,0.38,0.09,0.75-0.1,1.02c-0.18,0.26-0.49,0.4-0.85,0.4C65.76,127.13,64.98,126.55,64.73,125.82z M65.11,124.99
					c-0.13,0.18-0.15,0.44-0.06,0.72c0.2,0.6,0.85,1.09,1.45,1.09c0.25,0,0.46-0.09,0.58-0.26c0.13-0.18,0.15-0.44,0.06-0.72l0,0
					c-0.2-0.6-0.85-1.09-1.45-1.09C65.43,124.73,65.23,124.82,65.11,124.99z"/>
			</g>
		</g>
		<g>
			<g>
				<path class="st33" d="M81.33,146.31h9.73c0.81,0,1.36-0.82,1.05-1.57l-0.51-1.24c-0.18-0.42-0.59-0.7-1.05-0.7h-9.73
					c-0.81,0-1.36,0.82-1.05,1.57l0.51,1.24C80.46,146.03,80.87,146.31,81.33,146.31z"/>
			</g>
		</g>
		<g>
			<g>
				<path class="st35" d="M87.19,132.28h9.65c0.69,0,1.21-0.64,1.07-1.32v0c-0.11-0.51-0.55-0.87-1.07-0.87h-9.65
					c-0.69,0-1.21,0.64-1.07,1.32l0,0C86.23,131.91,86.68,132.28,87.19,132.28z"/>
			</g>
			<g>
				<path class="st34" d="M85.96,131.44c-0.08-0.37,0.01-0.76,0.25-1.05c0.24-0.3,0.6-0.47,0.98-0.47h9.65c0.59,0,1.11,0.42,1.23,1
					c0.08,0.37-0.01,0.76-0.25,1.05c-0.24,0.3-0.6,0.47-0.98,0.47h-9.65C86.6,132.44,86.08,132.02,85.96,131.44z M87.19,130.26
					c-0.28,0-0.54,0.12-0.72,0.34c-0.18,0.22-0.24,0.5-0.19,0.77c0.09,0.42,0.47,0.73,0.9,0.73h9.65c0.28,0,0.54-0.12,0.72-0.34
					c0.18-0.22,0.24-0.5,0.19-0.77c-0.09-0.42-0.47-0.73-0.9-0.73H87.19z"/>
			</g>
		</g>
		<g>
			<g>
				<path class="st35" d="M77.53,132.28h5.44c0.69,0,1.21-0.64,1.07-1.32v0c-0.11-0.51-0.55-0.87-1.07-0.87h-5.44
					c-0.69,0-1.21,0.64-1.07,1.32l0,0C76.56,131.91,77.01,132.28,77.53,132.28z"/>
			</g>
			<g>
				<path class="st34" d="M76.29,131.44c-0.08-0.37,0.01-0.76,0.25-1.05c0.24-0.3,0.6-0.47,0.98-0.47h5.44c0.59,0,1.11,0.42,1.23,1
					c0.08,0.37-0.01,0.76-0.25,1.05c-0.24,0.3-0.6,0.47-0.98,0.47h-5.44C76.93,132.44,76.41,132.02,76.29,131.44z M77.53,130.26
					c-0.28,0-0.54,0.12-0.72,0.34c-0.18,0.22-0.24,0.5-0.19,0.77c0.09,0.42,0.47,0.73,0.9,0.73h5.44c0.28,0,0.54-0.12,0.72-0.34
					c0.18-0.22,0.24-0.5,0.19-0.77c-0.09-0.42-0.47-0.73-0.9-0.73H77.53z"/>
			</g>
		</g>
		<g>
			<g>
				<path class="st35" d="M93.38,135.86h4.22c0.69,0,1.21-0.64,1.07-1.32l0,0c-0.11-0.51-0.55-0.87-1.07-0.87h-4.22
					c-0.69,0-1.21,0.64-1.07,1.32l0,0C92.42,135.5,92.87,135.86,93.38,135.86z"/>
			</g>
			<g>
				<path class="st34" d="M92.15,135.03c-0.08-0.37,0.01-0.76,0.25-1.05c0.24-0.3,0.6-0.47,0.98-0.47h4.22c0.59,0,1.11,0.42,1.23,1
					c0.08,0.37-0.01,0.76-0.25,1.05c-0.24,0.3-0.6,0.47-0.98,0.47h-4.22C92.79,136.03,92.27,135.61,92.15,135.03z M93.38,133.85
					c-0.28,0-0.54,0.12-0.72,0.34c-0.18,0.22-0.24,0.5-0.19,0.77c0.09,0.42,0.47,0.73,0.9,0.73h4.22c0.28,0,0.54-0.12,0.72-0.34
					c0.18-0.22,0.24-0.5,0.19-0.77c-0.09-0.42-0.47-0.73-0.9-0.73H93.38z"/>
			</g>
		</g>
		<g>
			<g>
				<path class="st35" d="M72.97,135.86h16.69c0.69,0,1.21-0.64,1.07-1.32l0,0c-0.11-0.51-0.55-0.87-1.07-0.87H72.97
					c-0.69,0-1.21,0.64-1.07,1.32l0,0C72.01,135.5,72.45,135.86,72.97,135.86z"/>
			</g>
			<g>
				<path class="st34" d="M71.74,135.03c-0.08-0.37,0.01-0.76,0.25-1.05c0.24-0.3,0.6-0.47,0.98-0.47h16.69c0.59,0,1.11,0.42,1.23,1
					c0.08,0.37-0.01,0.76-0.25,1.05c-0.24,0.3-0.6,0.47-0.98,0.47H72.97C72.38,136.03,71.86,135.61,71.74,135.03z M72.97,133.85
					c-0.28,0-0.54,0.12-0.72,0.34c-0.18,0.22-0.24,0.5-0.19,0.77c0.09,0.42,0.47,0.73,0.9,0.73h16.69c0.28,0,0.54-0.12,0.72-0.34
					c0.18-0.22,0.24-0.5,0.19-0.77c-0.09-0.42-0.47-0.73-0.9-0.73H72.97z"/>
			</g>
		</g>
	</g>
</g>
</svg>
